<?xml version="1.0" encoding="UTF-8"?>
<svg id="Layer_1" data-name="Layer 1" xmlns="http://www.w3.org/2000/svg" viewBox="0 0 841 382">
	<defs>
		<style>
			.cls-1 {
			fill: #fff;
			}

			.cls-2 {
			fill: none;
			}

			.cls-3 {
			fill: #fff;
			}
		</style>
	</defs>
	<rect class="cls-2" width="841" height="382"/>
	<g id="Group_17" data-name="Group 17">
		<g id="Group_16" data-name="Group 16">
			<path id="Subtraction_2" data-name="Subtraction 2" class="cls-1" d="M208.16,112.7h-.15c-.92,0-1.81-.31-2.53-.88-4.5-3.86-8.61-8.15-12.29-12.8-3.33-4.12-6.16-8.62-8.45-13.4-2.41-4.9-3.72-10.27-3.84-15.73,0-3.63,.72-7.23,2.14-10.58,1.36-3.23,3.34-6.17,5.83-8.64,2.48-2.48,5.41-4.46,8.64-5.83,3.34-1.42,6.94-2.15,10.58-2.14,3.64,0,7.24,.72,10.58,2.14,3.23,1.36,6.16,3.34,8.64,5.82,2.48,2.48,4.46,5.41,5.83,8.64,1.42,3.35,2.14,6.95,2.14,10.58-.12,5.46-1.43,10.83-3.84,15.74-2.29,4.78-5.12,9.27-8.45,13.39-3.68,4.65-7.79,8.94-12.29,12.8-.73,.58-1.62,.89-2.54,.89Zm-.07-56.49c-7.55,.01-13.67,6.13-13.68,13.68,.01,7.55,6.13,13.67,13.68,13.68,7.55,0,13.67-6.13,13.68-13.68-.02-7.55-6.13-13.67-13.68-13.68h0Z"/>
		</g>
		<path id="Path_75" data-name="Path 75" class="cls-1" d="M389.91,326.29v-24.81l-4.38,.65v28.33h15.48l.7-4.18h-11.8Zm28.5,4.72c8.21,.15,14.99-6.38,15.15-14.6v-.27c-.01-8.21-6.67-14.87-14.88-14.86h-.27c-8.21-.15-14.99,6.38-15.15,14.6v.27c.01,8.21,6.67,14.87,14.88,14.86h.27Zm0-4.18c-5.82,.03-10.57-4.67-10.6-10.49v-.19c-.08-5.82,4.58-10.61,10.41-10.69h.19c5.82-.03,10.57,4.67,10.6,10.49v.19c.08,5.82-4.58,10.61-10.41,10.69h-.19Zm34.35,4.18c2.73-.01,5.41-.68,7.82-1.96l-.78-4.38c-2.05,1.38-4.45,2.12-6.92,2.13-5.82,.09-10.6-4.56-10.69-10.37v-.27c-.07-5.83,4.61-10.62,10.44-10.69h.24c2.32,.02,4.59,.68,6.55,1.92l.74-4.38c-2.26-1.14-4.76-1.73-7.29-1.72-8.23-.21-15.06,6.3-15.27,14.52v.34c-.01,8.2,6.63,14.86,14.83,14.87,.12-.01,.23-.01,.33-.01Zm32.26-.53h4.71l-13.51-29.68-13.55,29.68h4.75l3.52-8.23h10.56l3.52,8.23Zm-12.44-12.08l3.64-8.43,3.6,8.43h-7.24Zm35-12.45l-.7-4.14h-18.83l-.7,4.14h7.94v24.53h4.38v-24.53h7.91Zm8.36,20.51v-8.68h9.74v-4.01h-9.74v-7.94h11.83l-.7-4.01h-15.51v28.66h16.05l.7-4.01h-12.37Zm45,4h4.71l-13.51-29.68-13.56,29.68h4.75l3.52-8.23h10.56l3.53,8.23Zm-12.45-12.07l3.64-8.43,3.6,8.43h-7.24Zm45.48-16.91l-4.38,.65v19.08l-20.23-20.63v29.89h4.38v-19.45l20.23,20.68v-30.22Zm6.51,28.98h7.12c8.52,0,14.94-6.14,14.94-14.33s-6.43-14.33-14.94-14.33h-7.12v28.66Zm4.39-4.13v-20.39h2.66c6.06,0,10.48,4.34,10.48,10.19s-4.42,10.2-10.48,10.2h-2.66Zm38.44-24.52h-7.25v28.66h4.38v-8.89h2.87c6.3,0,10.89-4.14,10.89-9.87s-4.58-9.9-10.89-9.9Zm-.24,15.84h-2.62v-11.92h2.62c3.89,0,6.63,2.5,6.63,5.98s-2.74,5.94-6.63,5.94h0Zm34.22,12.82l-8.47-11.22c4.42-.94,7.25-4.18,7.25-8.48,0-5.16-3.93-8.97-10.28-8.97h-6.88v28.66h4.38v-12l8.64,12h5.36Zm-13.99-24.81h2.17c3.81,0,6.1,2.21,6.1,5.32s-2.29,5.45-6.1,5.45h-2.17v-10.77Zm31.89,25.35c8.21,.15,14.99-6.38,15.15-14.6v-.27c-.01-8.21-6.67-14.87-14.88-14.86h-.27c-8.21-.15-14.99,6.38-15.15,14.6v.27c.01,8.21,6.67,14.87,14.88,14.86h.27Zm0-4.18c-5.82,.03-10.57-4.67-10.6-10.49v-.19c-.08-5.82,4.58-10.61,10.41-10.69h.19c5.82-.03,10.57,4.67,10.6,10.49v.19c.08,5.82-4.58,10.61-10.41,10.69h-.19Zm36.4-20.88l-.7-4.13h-18.83l-.7,4.13h7.94v24.53h4.38v-24.53h7.91Zm8.35,20.51v-8.68h9.74v-4.01h-9.74v-7.94h11.83l-.7-4.01h-15.51v28.66h16.05l.7-4.01h-12.37Zm30.3,4.54c2.73-.01,5.41-.68,7.82-1.96l-.78-4.38c-2.05,1.38-4.45,2.12-6.92,2.13-5.82,.09-10.6-4.56-10.69-10.37v-.27c-.07-5.83,4.61-10.62,10.44-10.69h.25c2.32,.02,4.59,.68,6.55,1.92l.74-4.38c-2.26-1.14-4.76-1.73-7.29-1.72-8.23-.21-15.06,6.3-15.27,14.52v.34c-.01,8.2,6.63,14.86,14.83,14.87,.11-.01,.21-.01,.32-.01h0Zm30.3-25.06l-.7-4.14h-18.83l-.7,4.14h7.94v24.52h4.38v-24.53h7.91Z"/>
		<path id="Path_72" data-name="Path 72" class="cls-3" d="M148.04,115.79l-50.25,109.31L47.56,115.78H19.96l77.83,162.74L175.62,115.78h-27.58Zm48.2,155.67h24.77V115.51l-12.21,10.16-12.55-9.6v155.38Zm106.26,3.54c30.07,0,50.59-19.1,50.59-46.35,0-23-14.51-39.27-40.68-47.76l-6.37-2.12c-20.52-7.08-25.83-14.15-25.83-24.06,0-11.68,8.49-20.52,23.7-20.52,9.55,0,23.7,3.89,37.86,12.74l4.6-22.64c-13.44-7.43-28.66-12.03-42.45-12.03-27.6,0-47.05,18.4-47.05,42.81,0,21.23,12.74,37.5,37.15,45.64l6.37,2.12c23.35,7.43,28.66,15.21,28.66,25.83,0,15.21-10.61,24.41-26.53,24.41s-29.72-6.01-45.28-16.98l-4.24,22.64c14.12,9.9,32.16,16.27,49.5,16.27h0Zm249.18-162.74c-22.29,0-40.68,10.61-51.3,28.66-9.55-18.75-26.89-28.66-47.41-28.66-18.4,0-33.96,8.14-44.22,22.29v-21.23l-23.35,4.6v153.54h24.77v-90.92c0-27.95,16.63-45.28,39.27-45.28,20.52,0,35.02,14.15,35.02,41.75v94.46h24.76v-90.92c0-27.95,16.63-45.28,39.27-45.28,20.52,0,35.02,14.15,35.02,41.75v94.46h24.77v-96.58c0-40.35-24.05-62.64-56.6-62.64Zm166.06,162.74c46.34,0,82.78-35.73,82.78-81.37s-36.44-81.37-82.78-81.37-82.78,35.73-82.78,81.37,36.43,81.37,82.78,81.37Zm0-23c-32.55,0-57.31-25.12-57.31-58.37s24.77-58.37,57.31-58.37,57.31,25.11,57.31,58.37-24.77,58.37-57.31,58.37h0Z"/>
		<path id="Path_72-2" data-name="Path 72-2" class="cls-3" d="M790.6,102.67c-5.36-.05-9.74,4.25-9.79,9.61v.15c-.03,5.36,4.28,9.73,9.64,9.76h.15c5.35,.04,9.72-4.27,9.76-9.62v-.14c.04-5.35-4.27-9.72-9.62-9.76h-.14Zm0,17.68c-4.35,.02-7.9-3.49-7.92-7.84v-.08c-.02-4.35,3.49-7.9,7.84-7.92h.08c4.35-.02,7.9,3.49,7.92,7.84v.08c.02,4.35-3.49,7.9-7.84,7.92-.03,0-.05,0-.08,0Zm4.22-9.97c0-1.97-1.57-3.27-3.95-3.27h-3.73v10.44h2.14v-4.19l3.08,4.19h2.6l-3.08-3.97c1.67-.12,2.96-1.53,2.94-3.2h0Zm-5.54-1.55h1.43c1.16,0,1.95,.6,1.95,1.62-.01,.95-.79,1.7-1.74,1.69-.07,0-.14-.01-.21-.02h-1.43v-3.29Z"/>
	</g>
</svg>